<svg xmlns="http://www.w3.org/2000/svg" class="graphdiagram" viewBox="-5764.62841959166 -4143.706473185688 3180.0642561660416 1777.562722174299"><g class="layer relationships"><g class="related-pair"><g class="relationship" transform="translate(-4343.188039878729,-3610.5633284748087) rotate(139.9599669892681)"><path class="relationship" d="M 116.48108188149236 4 L 802.4079881573189 4 L 802.4079881573189 16 L 834.4079881573189 0 L 802.4079881573189 -16 L 802.4079881573189 -4 L 116.48108188149236 -4 Z" fill="rgb(0, 0, 0)" stroke="rgb(51, 51, 51)" stroke-width="0px"/><text class="type" text-anchor="middle" baseline-shift="30%" alignment-baseline="alphabetic" x="-459.4445350194056" y="0" font-size="50px" font-family="'Gill Sans', 'Gill Sans MT', Calibri, sans-serif" transform="rotate(180)">:USES</text></g></g><g class="related-pair"><g class="relationship" transform="translate(-5128.37993440998,-2950.773654363419) rotate(-110.78074568061213)"><path class="relationship" d="M 191.1887772927234 4 L 798.1898454500324 4 L 798.1898454500324 16 L 830.1898454500324 0 L 798.1898454500324 -16 L 798.1898454500324 -4 L 191.1887772927234 -4 Z" fill="rgb(0, 0, 0)" stroke="rgb(51, 51, 51)" stroke-width="0px"/><text class="type" text-anchor="middle" baseline-shift="30%" alignment-baseline="alphabetic" x="-494.68931137137787" y="0" font-size="50px" font-family="'Gill Sans', 'Gill Sans MT', Calibri, sans-serif" transform="rotate(180)">:CONVERTER_VERSION</text></g></g><g class="related-pair"><g class="relationship" transform="translate(-4343.188039878729,-3610.5633284748087) rotate(96.9847113873271)"><path class="relationship" d="M 116.48108188149236 4 L 903.6901640138518 4 L 903.6901640138518 16 L 935.6901640138518 0 L 903.6901640138518 -16 L 903.6901640138518 -4 L 116.48108188149236 -4 Z" fill="rgb(0, 0, 0)" stroke="rgb(51, 51, 51)" stroke-width="0px"/><text class="type" text-anchor="middle" baseline-shift="30%" alignment-baseline="alphabetic" x="-510.08562294767205" y="0" font-size="50px" font-family="'Gill Sans', 'Gill Sans MT', Calibri, sans-serif" transform="rotate(180)">:FILE</text></g></g><g class="related-pair"><g class="relationship" transform="translate(-4343.188039878729,-3610.5633284748087) rotate(81.0758704888553)"><path class="relationship" d="M 116.48108188149236 4 L 908.8378416458371 4 L 908.8378416458371 16 L 940.8378416458371 0 L 908.8378416458371 -16 L 908.8378416458371 -4 L 116.48108188149236 -4 Z" fill="rgb(0, 0, 0)" stroke="rgb(51, 51, 51)" stroke-width="0px"/></g></g><g class="related-pair"><g class="relationship" transform="translate(-4343.188039878729,-3610.5633284748087) rotate(66.8976130842915)"><path class="relationship" d="M 116.48108188149236 4 L 989.5878159170082 4 L 989.5878159170082 16 L 1021.5878159170082 0 L 989.5878159170082 -16 L 989.5878159170082 -4 L 116.48108188149236 -4 Z" fill="rgb(0, 0, 0)" stroke="rgb(51, 51, 51)" stroke-width="0px"/></g></g><g class="related-pair"><g class="relationship" transform="translate(-4343.188039878729,-3610.5633284748087) rotate(35.0067208859766)"><path class="relationship" d="M 116.48108188149236 4 L 1668.6809750993348 4 L 1668.6809750993348 16 L 1700.6809750993348 0 L 1668.6809750993348 -16 L 1668.6809750993348 -4 L 116.48108188149236 -4 Z" fill="rgb(0, 0, 0)" stroke="rgb(51, 51, 51)" stroke-width="0px"/><text class="type" text-anchor="middle" baseline-shift="30%" alignment-baseline="alphabetic" x="892.5810284904136" y="0" font-size="50px" font-family="'Gill Sans', 'Gill Sans MT', Calibri, sans-serif">:MERGING_RESULT</text></g></g></g><g class="layer nodes"><circle class="node node-id-0" r="176.1887772927234" fill="rgb(255, 255, 255)" stroke="rgb(0, 0, 0)" stroke-width="8px" cx="-5128.37993440998" cy="-2950.773654363419"/><circle class="node node-id-1" r="101.48108188149236" fill="rgb(255, 255, 255)" stroke="rgb(0, 0, 0)" stroke-width="8px" cx="-4343.188039878729" cy="-3610.5633284748087"/><g class="caption"><text class="caption node" text-anchor="middle" alignment-baseline="central" x="-5128.37993440998" y="-2950.773654363419" font-size="50px" font-family="'Gill Sans', 'Gill Sans MT', Calibri, sans-serif">ConverterTool</text></g><g class="caption"><text class="caption node" text-anchor="middle" alignment-baseline="central" x="-4343.188039878729" y="-3610.5633284748087" font-size="50px" font-family="'Gill Sans', 'Gill Sans MT', Calibri, sans-serif">Process</text></g><circle class="node node-id-2" r="134.99515548097918" fill="rgb(255, 255, 255)" stroke="rgb(0, 0, 0)" stroke-width="8px" cx="-4173.970998863102" cy="-2532.935275457169"/><g class="caption"><text class="caption node" text-anchor="middle" alignment-baseline="central" x="-4173.970998863102" y="-2532.935275457169" font-size="50px" font-family="'Gill Sans', 'Gill Sans MT', Calibri, sans-serif">ProcessFile</text></g><circle class="node node-id-4" r="206.06624125210288" fill="rgb(255, 255, 255)" stroke="rgb(0, 0, 0)" stroke-width="8px" cx="-5501.358017578143" cy="-3933.640231933585"/><g class="caption"><text class="caption node" text-anchor="middle" alignment-baseline="central" x="-5501.358017578143" y="-3933.640231933585" font-size="50px" font-family="'Gill Sans', 'Gill Sans MT', Calibri, sans-serif">ConverterVersion</text></g><circle class="node node-id-4" r="134.99515548097918" fill="rgb(255, 255, 255)" stroke="rgb(0, 0, 0)" stroke-width="8px" cx="-4475.212250976561" cy="-2532.935275457169"/><g class="caption"><text class="caption node" text-anchor="middle" alignment-baseline="central" x="-4475.212250976561" y="-2532.935275457169" font-size="50px" font-family="'Gill Sans', 'Gill Sans MT', Calibri, sans-serif">ProcessFile</text></g><circle class="node node-id-5" r="134.99515548097918" fill="rgb(255, 255, 255)" stroke="rgb(0, 0, 0)" stroke-width="8px" cx="-3883.4876611328023" cy="-2532.935275457169"/><g class="caption"><text class="caption node" text-anchor="middle" alignment-baseline="central" x="-3883.4876611328023" y="-2532.935275457169" font-size="50px" font-family="'Gill Sans', 'Gill Sans MT', Calibri, sans-serif">ProcessFile</text></g><circle class="node node-id-6" r="162.7915244457802" fill="rgb(255, 255, 255)" stroke="rgb(0, 0, 0)" stroke-width="8px" cx="-2804.5598486328117" cy="-2532.935275457169"/><g class="caption"><text class="caption node" text-anchor="middle" alignment-baseline="central" x="-2804.5598486328117" y="-2532.935275457169" font-size="50px" font-family="'Gill Sans', 'Gill Sans MT', Calibri, sans-serif">ProcessResult</text></g></g><g class="layer properties"/><g class="layer overlay"><circle class="node overlay" r="180.1887772927234" stroke="none" fill="rgba(255, 255, 255, 0)" cx="-5128.37993440998" cy="-2950.773654363419"/><circle class="node overlay" r="105.48108188149236" stroke="none" fill="rgba(255, 255, 255, 0)" cx="-4343.188039878729" cy="-3610.5633284748087"/><circle class="node ring" r="185.1887772927234" fill="none" stroke="rgba(255, 255, 255, 0)" stroke-width="10px" cx="-5128.37993440998" cy="-2950.773654363419"/><circle class="node ring" r="110.48108188149236" fill="none" stroke="rgba(255, 255, 255, 0)" stroke-width="10px" cx="-4343.188039878729" cy="-3610.5633284748087"/><path class="relationship overlay" fill="rgba(255, 255, 255, 0)" stroke="rgba(255, 255, 255, 0)" stroke-width="10px" transform="translate(-4343.188039878729,-3610.5633284748087) rotate(139.9599669892681)" d="M 116.48108188149236 4 L 802.4079881573189 4 L 802.4079881573189 16 L 834.4079881573189 0 L 802.4079881573189 -16 L 802.4079881573189 -4 L 116.48108188149236 -4 Z"/><circle class="node overlay" r="138.99515548097918" stroke="none" fill="rgba(255, 255, 255, 0)" cx="-4173.970998863102" cy="-2532.935275457169"/><circle class="node ring" r="143.99515548097918" fill="none" stroke="rgba(255, 255, 255, 0)" stroke-width="10px" cx="-4173.970998863102" cy="-2532.935275457169"/><path class="relationship overlay" fill="rgba(255, 255, 255, 0)" stroke="rgba(255, 255, 255, 0)" stroke-width="10px" transform="translate(-5128.37993440998,-2950.773654363419) rotate(-110.78074568061213)" d="M 191.1887772927234 4 L 798.1898454500324 4 L 798.1898454500324 16 L 830.1898454500324 0 L 798.1898454500324 -16 L 798.1898454500324 -4 L 191.1887772927234 -4 Z"/><circle class="node overlay" r="210.06624125210288" stroke="none" fill="rgba(255, 255, 255, 0)" cx="-5501.358017578143" cy="-3933.640231933585"/><circle class="node ring" r="215.06624125210288" fill="none" stroke="rgba(255, 255, 255, 0)" stroke-width="10px" cx="-5501.358017578143" cy="-3933.640231933585"/><path class="relationship overlay" fill="rgba(255, 255, 255, 0)" stroke="rgba(255, 255, 255, 0)" stroke-width="10px" transform="translate(-4343.188039878729,-3610.5633284748087) rotate(96.9847113873271)" d="M 116.48108188149236 4 L 903.6901640138518 4 L 903.6901640138518 16 L 935.6901640138518 0 L 903.6901640138518 -16 L 903.6901640138518 -4 L 116.48108188149236 -4 Z"/><circle class="node overlay" r="138.99515548097918" stroke="none" fill="rgba(255, 255, 255, 0)" cx="-4475.212250976561" cy="-2532.935275457169"/><circle class="node ring" r="143.99515548097918" fill="none" stroke="rgba(255, 255, 255, 0)" stroke-width="10px" cx="-4475.212250976561" cy="-2532.935275457169"/><path class="relationship overlay" fill="rgba(255, 255, 255, 0)" stroke="rgba(255, 255, 255, 0)" stroke-width="10px" transform="translate(-4343.188039878729,-3610.5633284748087) rotate(81.0758704888553)" d="M 116.48108188149236 4 L 908.8378416458371 4 L 908.8378416458371 16 L 940.8378416458371 0 L 908.8378416458371 -16 L 908.8378416458371 -4 L 116.48108188149236 -4 Z"/><circle class="node overlay" r="138.99515548097918" stroke="none" fill="rgba(255, 255, 255, 0)" cx="-3883.4876611328023" cy="-2532.935275457169"/><circle class="node ring" r="143.99515548097918" fill="none" stroke="rgba(255, 255, 255, 0)" stroke-width="10px" cx="-3883.4876611328023" cy="-2532.935275457169"/><path class="relationship overlay" fill="rgba(255, 255, 255, 0)" stroke="rgba(255, 255, 255, 0)" stroke-width="10px" transform="translate(-4343.188039878729,-3610.5633284748087) rotate(66.8976130842915)" d="M 116.48108188149236 4 L 989.5878159170082 4 L 989.5878159170082 16 L 1021.5878159170082 0 L 989.5878159170082 -16 L 989.5878159170082 -4 L 116.48108188149236 -4 Z"/><circle class="node overlay" r="166.7915244457802" stroke="none" fill="rgba(255, 255, 255, 0)" cx="-2804.5598486328117" cy="-2532.935275457169"/><circle class="node ring" r="171.7915244457802" fill="none" stroke="rgba(255, 255, 255, 0)" stroke-width="10px" cx="-2804.5598486328117" cy="-2532.935275457169"/><path class="relationship overlay" fill="rgba(255, 255, 255, 0)" stroke="rgba(255, 255, 255, 0)" stroke-width="10px" transform="translate(-4343.188039878729,-3610.5633284748087) rotate(35.0067208859766)" d="M 116.48108188149236 4 L 1668.6809750993348 4 L 1668.6809750993348 16 L 1700.6809750993348 0 L 1668.6809750993348 -16 L 1668.6809750993348 -4 L 116.48108188149236 -4 Z"/></g></svg>