<svg xmlns="http://www.w3.org/2000/svg" class="graphdiagram" viewBox="-10167.625153744106 -5025.571422318746 2103.057913500337 1109.4043889658674"><g class="layer relationships"><g class="related-pair"><g class="relationship" transform="translate(-9728.67534456625,-4821.697187499996) rotate(90)"><path class="relationship" d="M 214.87423481874936 4 L 651.5679903841332 4 L 651.5679903841332 16 L 683.5679903841332 0 L 651.5679903841332 -16 L 651.5679903841332 -4 L 214.87423481874936 -4 Z" fill="rgb(0, 0, 0)" stroke="rgb(51, 51, 51)" stroke-width="0px"/><text class="type" text-anchor="middle" baseline-shift="30%" alignment-baseline="alphabetic" x="433.2211126014413" y="0" font-size="50px" font-family="'Gill Sans', 'Gill Sans MT', Calibri, sans-serif">:LAST_PROCESS</text></g></g><g class="related-pair"><g class="relationship" transform="translate(-9728.67534456625,-4021.648115234371) rotate(0)"><path class="relationship" d="M 116.48108188149236 4 L 511.97718260664317 4 L 511.97718260664317 16 L 543.9771826066432 0 L 511.97718260664317 -16 L 511.97718260664317 -4 L 116.48108188149236 -4 Z" fill="rgb(0, 0, 0)" stroke="rgb(51, 51, 51)" stroke-width="0px"/><text class="type" text-anchor="middle" baseline-shift="30%" alignment-baseline="alphabetic" x="314.2291322440678" y="0" font-size="50px" font-family="'Gill Sans', 'Gill Sans MT', Calibri, sans-serif">:NEXT_PROCESS</text></g></g><g class="related-pair"><g class="relationship" transform="translate(-9068.217080078115,-4021.648115234371) rotate(0)"><path class="relationship" d="M 116.48108188149236 4 L 514.6121017122563 4 L 514.6121017122563 16 L 546.6121017122563 0 L 514.6121017122563 -16 L 514.6121017122563 -4 L 116.48108188149236 -4 Z" fill="rgb(0, 0, 0)" stroke="rgb(51, 51, 51)" stroke-width="0px"/><text class="type" text-anchor="middle" baseline-shift="30%" alignment-baseline="alphabetic" x="315.54659179687434" y="0" font-size="50px" font-family="'Gill Sans', 'Gill Sans MT', Calibri, sans-serif">:NEXT_PROCESS</text></g></g></g><g class="layer nodes"><circle class="node node-id-0" r="101.48108188149236" fill="rgb(255, 255, 255)" stroke="rgb(0, 0, 0)" stroke-width="8px" cx="-9728.67534456625" cy="-4021.648115234371"/><g class="caption"><text class="caption node" text-anchor="middle" alignment-baseline="central" x="-9728.67534456625" y="-4021.648115234371" font-size="50px" font-family="'Gill Sans', 'Gill Sans MT', Calibri, sans-serif">Process</text></g><circle class="node node-id-1" r="199.87423481874936" fill="rgb(255, 255, 255)" stroke="rgb(0, 0, 0)" stroke-width="8px" cx="-9728.67534456625" cy="-4821.697187499996"/><g class="caption"><text class="caption node" text-anchor="middle" alignment-baseline="central" x="-9728.67534456625" y="-4821.697187499996" font-size="50px" font-family="'Gill Sans', 'Gill Sans MT', Calibri, sans-serif">ProcessDefinition</text></g><circle class="node node-id-2" r="101.48108188149236" fill="rgb(255, 255, 255)" stroke="rgb(0, 0, 0)" stroke-width="8px" cx="-9068.217080078115" cy="-4021.648115234371"/><g class="caption"><text class="caption node" text-anchor="middle" alignment-baseline="central" x="-9068.217080078115" y="-4021.648115234371" font-size="50px" font-family="'Gill Sans', 'Gill Sans MT', Calibri, sans-serif">Process</text></g><circle class="node node-id-3" r="101.48108188149236" fill="rgb(255, 255, 255)" stroke="rgb(0, 0, 0)" stroke-width="8px" cx="-8405.123896484367" cy="-4021.648115234371"/><g class="caption"><text class="caption node" text-anchor="middle" alignment-baseline="central" x="-8405.123896484367" y="-4021.648115234371" font-size="50px" font-family="'Gill Sans', 'Gill Sans MT', Calibri, sans-serif">Process</text></g></g><g class="layer properties"/><g class="layer overlay"><circle class="node overlay" r="105.48108188149236" stroke="none" fill="rgba(255, 255, 255, 0)" cx="-9728.67534456625" cy="-4021.648115234371"/><circle class="node ring" r="110.48108188149236" fill="none" stroke="rgba(255, 255, 255, 0)" stroke-width="10px" cx="-9728.67534456625" cy="-4021.648115234371"/><circle class="node overlay" r="203.87423481874936" stroke="none" fill="rgba(255, 255, 255, 0)" cx="-9728.67534456625" cy="-4821.697187499996"/><circle class="node ring" r="208.87423481874936" fill="none" stroke="rgba(255, 255, 255, 0)" stroke-width="10px" cx="-9728.67534456625" cy="-4821.697187499996"/><path class="relationship overlay" fill="rgba(255, 255, 255, 0)" stroke="rgba(255, 255, 255, 0)" stroke-width="10px" transform="translate(-9728.67534456625,-4821.697187499996) rotate(90)" d="M 214.87423481874936 4 L 651.5679903841332 4 L 651.5679903841332 16 L 683.5679903841332 0 L 651.5679903841332 -16 L 651.5679903841332 -4 L 214.87423481874936 -4 Z"/><circle class="node overlay" r="105.48108188149236" stroke="none" fill="rgba(255, 255, 255, 0)" cx="-9068.217080078115" cy="-4021.648115234371"/><circle class="node ring" r="110.48108188149236" fill="none" stroke="rgba(255, 255, 255, 0)" stroke-width="10px" cx="-9068.217080078115" cy="-4021.648115234371"/><path class="relationship overlay" fill="rgba(255, 255, 255, 0)" stroke="rgba(255, 255, 255, 0)" stroke-width="10px" transform="translate(-9728.67534456625,-4021.648115234371) rotate(0)" d="M 116.48108188149236 4 L 511.97718260664317 4 L 511.97718260664317 16 L 543.9771826066432 0 L 511.97718260664317 -16 L 511.97718260664317 -4 L 116.48108188149236 -4 Z"/><circle class="node overlay" r="105.48108188149236" stroke="none" fill="rgba(255, 255, 255, 0)" cx="-8405.123896484367" cy="-4021.648115234371"/><circle class="node ring" r="110.48108188149236" fill="none" stroke="rgba(255, 255, 255, 0)" stroke-width="10px" cx="-8405.123896484367" cy="-4021.648115234371"/><path class="relationship overlay" fill="rgba(255, 255, 255, 0)" stroke="rgba(255, 255, 255, 0)" stroke-width="10px" transform="translate(-9068.217080078115,-4021.648115234371) rotate(0)" d="M 116.48108188149236 4 L 514.6121017122563 4 L 514.6121017122563 16 L 546.6121017122563 0 L 514.6121017122563 -16 L 514.6121017122563 -4 L 116.48108188149236 -4 Z"/></g></svg>